<svg width="76" height="44" viewBox="0 0 96 64" fill="none" xmlns="http://www.w3.org/2000/svg">
<path d="M43.707 0L41.5391 12.3205H22.0982L20.9094 19.1807H34.8956L32.7977 30.8712H18.8115L15.5247 49.5619H0L8.74139 0H43.707Z" fill="#FCD34D"/>
<path d="M51.8695 16.9961C50.0177 16.9961 48.5575 16.5505 47.4891 15.6592C46.4564 14.768 45.94 13.6094 45.94 12.1834C45.94 10.9357 46.2783 9.77705 46.9549 8.70756C47.6316 7.63807 48.5753 6.80031 49.7862 6.19427C51.0326 5.55257 52.4037 5.23173 53.8995 5.23173C55.7158 5.23173 57.1403 5.69517 58.1731 6.62206C59.2415 7.5133 59.7757 8.68973 59.7757 10.1514C59.7757 11.3991 59.4373 12.5399 58.7607 13.5737C58.084 14.6076 57.1403 15.4453 55.9294 16.087C54.7186 16.6931 53.3653 16.9961 51.8695 16.9961ZM51.7093 51.6474C50.2848 59.8825 45.4414 64 37.1792 64H33.2261L34.9889 53.8934H37.286C38.0695 53.8934 38.6571 53.7329 39.0488 53.4121C39.4406 53.0912 39.7077 52.5743 39.8501 51.8613L45.566 19.4024H57.4252L51.7093 51.6474Z" fill="#FCD34D"/>
<path d="M73.5746 24.9638C75.106 23.2169 76.8154 21.8266 78.7029 20.7928C80.626 19.7233 82.5313 19.1885 84.4188 19.1885L82.2286 31.8619H78.8632C76.6195 31.8619 74.8923 32.2541 73.6814 33.0384C72.5062 33.8227 71.7405 35.213 71.3844 37.2094L69.1942 49.5619H57.335L62.677 19.4024H74.5362L73.5746 24.9638Z" fill="#FCD34D"/>
<path d="M88.0939 49.9897C86.242 49.9897 84.7819 49.5441 83.7135 48.6529C82.6807 47.7616 82.1643 46.603 82.1643 45.177C82.1643 43.9293 82.5026 42.7707 83.1793 41.7012C83.8915 40.6317 84.8531 39.794 86.0639 39.1879C87.3104 38.5462 88.6815 38.2254 90.1773 38.2254C91.9935 38.2254 93.4181 38.6888 94.4508 39.6157C95.4836 40.5069 96 41.6656 96 43.0915C96 44.3393 95.6617 45.4979 94.985 46.5674C94.3084 47.6012 93.3646 48.439 92.1538 49.0807C90.9429 49.6867 89.5896 49.9897 88.0939 49.9897Z" fill="#FCD34D"/>
</svg>
